PathFileType	4	(X/Y/Z)	paretic_post_fc0300a5.trc
DataRate	CameraRate	NumFrames	NumMarkers	Units	OrigDataRate	OrigDataStartFrame	OrigNumFrames
56.76	56.76	30	11	cm	56.76	1	433
Frame#	Time	NOSE			LEFT_SHOULDER			RIGHT_SHOULDER			LEFT_ELBOW			RIGHT_ELBOW			LEFT_WRIST			RIGHT_WRIST			LEFT_HIP			RIGHT_HIP			LEFT_INDEX			RIGHT_INDEX		
		X1	Y1	Z1	X2	Y2	Z2	X3	Y3	Z3	X4	Y4	Z4	X5	Y5	Z5	X6	Y6	Z6	X7	Y7	Z7	X8	Y8	Z8	X9	Y9	Z9	X10	Y10	Z10	X11	Y11	Z11
36	0.634233870967742	7.679241	-62.776327	-24.937810	11.422716	-49.399189	12.539272	-25.698060	-58.687499	2.388322	19.875563	-20.600808	11.921779	-39.328456	-20.716873	-11.217269	33.591255	-5.605715	3.424704	-34.319688	-10.768846	-33.044692	10.621636	-2.398646	10.755444	-10.215049	1.821785	-10.273509	34.565997	-4.290471	-1.530024	-23.544535	-18.956793	-44.090365
37	0.6518514784946237	7.672692	-62.782469	-26.008218	11.454503	-49.465331	11.921066	-25.651571	-58.708512	1.870308	19.963309	-20.757337	11.251904	-39.242729	-20.722896	-11.819158	33.609710	-5.732432	2.302017	-34.208773	-10.789035	-33.602275	10.619619	-2.403194	10.756415	-10.213021	1.828187	-10.274848	34.555472	-4.387694	-2.765093	-23.417895	-18.964228	-44.617327
38	0.6694690860215053	7.672172	-62.779341	-25.973980	11.556640	-49.462907	11.835519	-25.629189	-58.704769	1.947005	20.057493	-20.750581	10.830283	-39.230897	-20.741180	-11.737101	33.603602	-5.733639	1.363450	-34.193332	-10.806245	-33.573902	10.625149	-2.413332	10.737433	-10.220456	1.837447	-10.255890	34.483313	-4.391547	-3.785951	-23.378854	-18.970976	-44.595104
39	0.6870866935483871	7.698202	-62.771536	-25.972424	11.566543	-49.451650	11.835321	-25.585704	-58.695122	1.947209	20.061780	-20.749202	10.851607	-39.237691	-20.747462	-11.723548	33.600509	-5.726021	1.370808	-34.205726	-10.813875	-33.545189	10.622252	-2.414011	10.740390	-10.218376	1.838091	-10.259597	34.474807	-4.383472	-3.769500	-23.377860	-18.975645	-44.572509
40	0.7047043010752688	7.644397	-62.647842	-28.410020	11.569788	-49.442922	10.130778	-25.579165	-58.625577	0.776807	20.026127	-20.746088	9.617168	-39.238424	-20.544062	-12.620029	33.503936	-5.720027	0.429188	-34.208049	-10.812191	-34.416033	10.622241	-2.424769	10.740158	-10.218718	1.851365	-10.259272	34.409450	-4.388074	-4.645178	-23.381109	-19.046582	-45.467312
41	0.7223219086021505	7.669276	-62.623644	-28.100335	11.569979	-49.442611	10.312872	-25.571070	-58.627151	0.864494	20.027875	-20.761525	9.898709	-39.244182	-20.540021	-12.518003	33.494967	-5.775236	0.964412	-34.211945	-10.796138	-34.308808	10.622722	-2.425695	10.737364	-10.219692	1.852133	-10.256748	34.392726	-4.472553	-4.048189	-23.383901	-19.038447	-45.388424
42	0.7399395161290323	7.672828	-62.601838	-27.685365	11.572474	-49.442242	10.833627	-25.562872	-58.675991	1.130962	20.027851	-20.762280	10.737661	-39.242596	-20.561293	-12.255176	33.549603	-5.781371	2.386623	-34.210294	-10.809464	-33.989867	10.621254	-2.423127	10.737195	-10.218530	1.849685	-10.256957	34.528098	-4.485695	-2.579662	-23.380715	-19.048836	-45.060532
43	0.757557123655914	7.795739	-62.601158	-28.031433	11.874902	-49.443752	10.555787	-25.273434	-58.672673	0.810878	20.091731	-20.747824	10.373920	-39.114940	-20.573038	-12.647494	33.621206	-5.778608	1.806481	-34.084014	-10.832221	-34.493772	10.621200	-2.429048	10.742091	-10.218952	1.856063	-10.262423	34.613683	-4.487542	-3.198062	-23.198749	-19.069912	-45.635820
44	0.7751747311827957	7.826308	-62.593175	-28.022786	11.957282	-49.471967	10.562347	-25.016465	-58.759832	0.789948	20.097552	-20.749641	10.214153	-39.033247	-20.586126	-12.639553	33.619393	-5.837603	1.207298	-33.879746	-11.093010	-34.456970	10.611489	-2.424265	10.763184	-10.209030	1.852467	-10.287589	34.610422	-4.648042	-3.879340	-22.915809	-19.560248	-45.595158
45	0.7927923387096775	7.816934	-62.579433	-28.057595	11.916126	-49.495485	10.580573	-25.008557	-58.770199	0.772916	19.889592	-20.837516	10.488759	-39.128075	-20.608470	-12.616843	33.523751	-5.798382	2.063069	-33.890668	-11.086128	-34.232125	10.605928	-2.424631	10.788073	-10.203521	1.853109	-10.315136	34.583784	-4.524607	-2.912670	-22.908234	-19.529720	-45.308754
46	0.8104099462365592	7.636935	-62.715421	-27.447755	11.887891	-49.485834	10.957799	-25.026855	-58.797282	1.239619	19.892378	-20.792079	10.492423	-39.130587	-20.669696	-12.461273	33.491809	-5.798405	1.733827	-34.015877	-11.125465	-34.190714	10.605985	-2.422417	10.787424	-10.203689	1.850407	-10.314277	34.495974	-4.533809	-3.402694	-23.123672	-19.528439	-45.277589
47	0.8280275537634408	7.644968	-62.788790	-27.433427	11.919491	-49.485167	10.961945	-25.028380	-58.825396	1.216876	19.856976	-20.650700	10.095215	-39.131041	-20.688050	-12.570808	33.218388	-5.868895	-0.009322	-34.009795	-11.123049	-34.653407	10.609871	-2.421615	10.787590	-10.209474	1.849012	-10.314470	34.100588	-4.790978	-5.409426	-23.117572	-19.500914	-45.931948
48	0.8456451612903226	7.861119	-62.788927	-26.935654	12.035951	-49.512949	11.104318	-24.976849	-58.846890	1.416403	20.348590	-20.746349	10.429241	-39.115846	-20.693991	-12.108581	33.591698	-5.900291	0.869599	-33.979844	-11.132232	-34.034232	10.610019	-2.421827	10.787366	-10.209713	1.849181	-10.314655	34.361128	-4.805889	-4.364445	-23.053499	-19.512349	-45.306496
49	0.8632627688172043	7.790070	-62.766870	-26.395161	11.730776	-49.473634	11.557454	-25.056045	-58.794660	1.790077	20.009482	-20.740591	11.707127	-39.482061	-20.683583	-11.357741	33.485862	-5.696291	3.385989	-34.338411	-11.096186	-32.809186	10.607103	-2.421310	10.789082	-10.207061	1.848446	-10.316644	34.343372	-4.498717	-1.634217	-23.306348	-19.459353	-43.978240
50	0.880880376344086	7.867156	-62.678793	-26.450643	11.731372	-49.450651	11.422478	-25.075521	-58.725644	1.757077	20.034878	-20.735359	11.572855	-39.490421	-20.585450	-11.354041	33.490311	-5.678009	3.354302	-34.334332	-10.934627	-32.712512	10.609379	-2.423569	10.766141	-10.209641	1.850626	-10.294255	34.344703	-4.481955	-1.700621	-23.302383	-19.338894	-43.840051
51	0.8984979838709678	7.758873	-62.661964	-26.501285	11.720220	-49.433065	11.422038	-25.118918	-58.719154	1.755945	20.037801	-20.741851	11.539204	-39.577273	-20.589978	-11.393251	33.411115	-5.679249	3.282801	-34.390751	-10.947892	-32.825649	10.608954	-2.424875	10.765318	-10.209634	1.851669	-10.293110	34.167641	-4.481164	-1.776329	-23.337392	-19.352735	-43.963191
52	0.9161155913978495	7.848269	-62.704006	-24.420701	11.943822	-49.396955	12.783493	-25.024265	-58.701463	3.270855	20.416647	-20.701167	11.905683	-39.358169	-20.587977	-10.417082	33.634709	-5.663873	3.207378	-34.155733	-10.918218	-32.234333	10.626920	-2.416816	10.758761	-10.226011	1.842650	-10.286757	34.287621	-4.457255	-1.855933	-23.089320	-19.225417	-43.353832
53	0.9337331989247312	8.198002	-62.689669	-24.515204	12.174580	-49.378831	12.776825	-24.574031	-58.694151	3.212106	20.647061	-20.676152	11.875326	-39.082140	-20.573578	-10.446354	33.855937	-5.658104	3.119036	-33.725105	-10.919090	-32.202923	10.623138	-2.415151	10.776340	-10.221618	1.841317	-10.308229	34.554671	-4.456813	-1.957961	-22.507772	-19.228079	-43.293853
54	0.951350806451613	8.193390	-62.673289	-27.725971	12.173043	-49.595273	10.801002	-24.485734	-58.722346	0.969477	20.643473	-21.139262	11.278137	-39.103404	-20.574499	-11.418065	33.841245	-5.961013	3.089719	-33.733465	-10.944392	-32.276885	10.589110	-2.418078	10.806070	-10.186375	1.847091	-10.342534	34.545299	-4.759265	-2.015949	-22.515946	-19.323119	-43.308687
55	0.9689684139784946	8.332485	-62.672970	-27.999637	12.188717	-49.694402	10.584721	-24.393400	-58.756984	0.556980	20.713160	-21.360156	11.252787	-39.003531	-20.660703	-11.897843	33.952138	-6.009918	3.070730	-33.699945	-10.972640	-32.767524	10.579330	-2.418512	10.831022	-10.176798	1.847660	-10.368621	34.642388	-4.777408	-1.996372	-22.502318	-19.324653	-43.781302
56	0.9865860215053763	8.299770	-62.638531	-28.015492	12.187411	-49.696655	10.522671	-24.398237	-58.769333	0.575684	20.716418	-21.369748	11.113195	-39.005323	-20.714403	-11.903153	33.921289	-6.001618	2.883260	-33.713729	-11.053208	-32.771255	10.574957	-2.420063	10.829868	-10.172097	1.849638	-10.367904	34.564609	-4.727679	-2.191796	-22.531810	-19.371182	-43.786465
57	1.004203629032258	8.074286	-62.645628	-28.160402	12.144561	-49.644550	10.332907	-24.464465	-58.754390	0.486681	20.660824	-21.237947	10.569898	-39.039564	-20.710358	-12.245243	33.915660	-5.901565	2.048734	-33.765072	-11.048888	-33.454493	10.573977	-2.420921	10.831365	-10.171442	1.850600	-10.368933	34.563860	-4.660193	-3.088613	-22.587365	-19.355494	-44.498764
58	1.02182123655914	8.057616	-62.644698	-27.663756	12.102581	-49.614251	10.804787	-24.607005	-58.747179	0.759219	20.498936	-21.138082	10.756374	-39.039074	-20.600800	-12.219982	33.801649	-5.937700	2.055040	-33.767631	-11.026448	-33.612442	10.577783	-2.419984	10.830238	-10.177022	1.848818	-10.367399	34.503609	-4.788396	-3.088422	-22.643620	-19.355860	-44.809154
59	1.0394388440860216	7.960214	-62.644681	-27.176137	12.041190	-49.566321	11.012468	-24.773961	-58.745492	1.226451	20.498588	-21.070756	10.812367	-39.159847	-20.610522	-12.046657	33.790981	-5.866978	2.089588	-33.947214	-11.027820	-33.603764	10.580298	-2.421196	10.806993	-10.180472	1.849472	-10.342305	34.470619	-4.668538	-3.059980	-22.838482	-19.350113	-44.801608
60	1.0570564516129033	8.173612	-62.585479	-27.020541	12.061742	-49.555671	11.018574	-24.778655	-58.733599	1.259731	20.530354	-21.053033	10.737305	-39.007512	-20.552614	-12.045931	33.694553	-5.878453	1.726989	-33.847893	-10.988472	-33.740233	10.586591	-2.423825	10.802457	-10.187278	1.851565	-10.337629	34.184919	-4.698559	-3.442964	-22.811264	-19.323665	-44.992148
61	1.074674059139785	8.173379	-62.567897	-27.815595	12.201983	-49.544005	10.321243	-24.736295	-58.719700	0.691243	20.614985	-21.014222	9.995396	-38.973551	-20.553083	-12.633378	33.750565	-5.871617	0.927414	-33.800334	-10.974518	-34.264718	10.586551	-2.430268	10.799493	-10.187553	1.859208	-10.334071	34.246117	-4.697078	-4.211185	-22.747400	-19.284988	-45.452600
62	1.0922916666666667	8.192663	-62.557053	-26.795513	12.225266	-49.542152	11.214129	-24.682260	-58.699614	1.417828	20.738195	-21.029647	10.725705	-38.832113	-20.424822	-12.213888	33.747356	-5.897673	1.526027	-33.774868	-11.002348	-34.030768	10.585191	-2.430522	10.806768	-10.186055	1.859467	-10.342640	34.236054	-4.725467	-3.605210	-22.747984	-19.456658	-45.221931
63	1.1099092741935483	8.257594	-62.512862	-28.377266	12.435573	-49.485260	10.150531	-24.330988	-58.627163	0.553242	20.845447	-21.000042	10.226228	-38.796274	-20.260488	-12.400235	33.826455	-5.850993	1.481541	-33.746082	-10.975578	-34.017965	10.578591	-2.430130	10.814430	-10.179960	1.859487	-10.352051	34.410825	-4.714719	-3.607530	-22.688112	-19.473641	-45.198947
64	1.12752688172043	8.255970	-62.499995	-28.624778	12.366208	-49.605676	10.021740	-24.327482	-58.627167	0.285554	20.823627	-21.244266	10.254698	-38.837479	-20.238067	-12.468644	33.825385	-5.884084	1.937774	-33.762951	-11.001779	-33.965455	10.560010	-2.433339	10.837737	-10.160366	1.864465	-10.378345	34.442084	-4.721912	-2.975938	-22.689913	-19.613824	-45.052059
65	1.145144489247312	7.974620	-62.462845	-28.546709	12.289063	-49.427125	10.043594	-24.569035	-58.451833	0.333257	20.705126	-21.013314	10.241569	-39.165941	-20.175785	-12.347477	33.717478	-5.525665	1.845453	-33.887131	-10.801916	-33.773191	10.561427	-2.447767	10.833003	-10.162644	1.880058	-10.371189	34.338816	-4.280605	-3.098569	-22.727726	-19.322105	-44.866722
